<svg width="24" height="24" viewBox="0 0 24 24" fill="none" xmlns="http://www.w3.org/2000/svg">
    <path fill-rule="evenodd" clip-rule="evenodd" d="M4.49995 1.5V4.5H1.49995V6.5H4.49995V9.49C4.49995 9.49 6.48995 9.5 6.49995 9.49V6.5H9.49995C9.49995 6.5 9.48995 4.51 9.49995 4.5H6.49995V1.5H4.49995ZM6.5 20.5H20.5V6.49996H11.5V4.49996H20.5C21.6 4.49996 22.5 5.39996 22.5 6.49996V20.5C22.5 21.6 21.6 22.5 20.5 22.5H6.5C5.4 22.5 4.5 21.6 4.5 20.5V11.5H6.5V20.5ZM14.2901 17.33L16.2501 14.97L19.0001 18.5H8.00005L11.5401 13.79L14.2901 17.33Z" fill="" />
</svg>