<svg width="24" height="24" viewBox="0 0 24 24" fill="none" xmlns="http://www.w3.org/2000/svg">
    <path fill-rule="evenodd" clip-rule="evenodd" d="M8.5 6.5H5.5V9.5H3.5V6.5H0.5V4.5H3.5V1.5H5.5V4.5H8.5V6.5ZM18.3299 6.49993H21.4999C22.5999 6.49993 23.4999 7.39993 23.4999 8.49993V20.4999C23.4999 21.5999 22.5999 22.4999 21.4999 22.4999H5.49995C4.39995 22.4999 3.49995 21.5999 3.49995 20.4999V11.4999H5.49995V20.4999H21.4999V8.49993H17.4499L15.6199 6.49993H10.4999V4.49993H16.4999L18.3299 6.49993ZM13.5 19.5C10.74 19.5 8.5 17.26 8.5 14.5C8.5 11.74 10.74 9.49998 13.5 9.49998C16.26 9.49998 18.5 11.74 18.5 14.5C18.5 17.26 16.26 19.5 13.5 19.5ZM13.5 11.5C15.15 11.5 16.5 12.85 16.5 14.5C16.5 16.15 15.15 17.5 13.5 17.5C11.85 17.5 10.5 16.15 10.5 14.5C10.5 12.85 11.85 11.5 13.5 11.5Z" fill="" />
</svg>