<svg width="49" height="49" viewBox="0 0 49 49" fill="none" xmlns="http://www.w3.org/2000/svg">
    <g id="icon/image/camera_24px">
        <path id="icon/image/camera_24px_2" fill-rule="evenodd" clip-rule="evenodd" d="M28.8966 5.07458L28.7375 4.99505L28.7176 5.03481C27.3258 4.73657 25.8942 4.55762 24.4229 4.55762C13.4473 4.55762 4.53966 13.4653 4.53966 24.4408C4.53966 35.4163 13.4473 44.324 24.4229 44.324C35.3984 44.324 44.3061 35.4163 44.3061 24.4408C44.3061 14.9963 37.7247 7.10267 28.8966 5.07458ZM39.1563 18.4755H23.2696L28.658 9.13044C33.4299 10.4427 37.3072 13.9422 39.1563 18.4755ZM20.9831 18.4759L26.61 8.6934C25.8942 8.59399 25.1585 8.53434 24.4229 8.53434C20.0883 8.53434 16.1515 10.2841 13.2883 13.1075L18.6965 22.4526L20.9831 18.4759ZM11.8964 14.6779L17.5433 24.4406L19.8298 28.4172H9.03326C8.71513 27.1447 8.5163 25.8125 8.5163 24.4406C8.5163 20.7622 9.78883 17.3821 11.8964 14.6779ZM25.5562 30.4059H9.6894C11.5385 34.9392 15.3959 38.4188 20.1678 39.751L25.5562 30.4059ZM22.2357 40.1685L30.1691 26.4292L35.5773 35.7743C32.6943 38.5977 28.7574 40.3475 24.4229 40.3475C23.6673 40.3475 22.9515 40.2679 22.2357 40.1685ZM28.996 20.4643L36.9493 34.2036C39.0569 31.4994 40.3294 28.1193 40.3294 24.4409C40.3294 23.069 40.1306 21.7368 39.7926 20.4643H28.996Z" fill="" />
    </g>
</svg>