<svg width="25" height="16" viewBox="0 0 25 16" fill="none" xmlns="http://www.w3.org/2000/svg">
<path fill-rule="evenodd" clip-rule="evenodd" d="M7.95454 6.95454V9.54545H12.4659C12.4591 9.58943 12.4508 9.63494 12.4411 9.68182H12.4318C12.1818 10.8864 10.9886 12.9659 7.95454 12.9659C5.26136 12.9659 3.06818 10.75 3.03409 8.02272C3.03409 8.03409 3.03125 8.04545 3.02841 8.05681C3.02682 8.06316 3.02523 8.06951 3.02414 8.07586C3.0232 8.03553 3.02273 7.99509 3.02273 7.95454C3.02273 5.18182 5.23863 2.93182 7.95454 2.93182C9.5 2.93182 10.5341 3.59091 11.125 4.15909L13.2841 2.07954L13.2723 2.06858L13.2727 2.06818C11.9279 0.812287 10.1809 0.0346766 8.09552 0.00113135C8.0487 0.000378081 8.0017 0 7.95454 0C3.55682 0 0 3.55682 0 7.95454V8.02272L0.000172464 8.00757C0.0286271 12.3808 3.57451 15.9091 7.95454 15.9091C12.5331 15.9091 15.5745 12.6992 15.5908 8.17307L15.5909 8.20454V8.13636V8.125C15.5909 7.60227 15.5341 7.20454 15.4659 6.80682H7.95454V6.81818V6.95454ZM22.7273 6.81812H25V9.09085H22.7273V11.3636H20.4545V9.09085H18.1818V6.81812H20.4545V4.5454H22.7273V6.81812Z" fill="white"/>
</svg>
