<svg width="48" height="49" viewBox="0 0 48 49" fill="none" xmlns="http://www.w3.org/2000/svg">
    <g id="icon/image/switch_camera_24px">
        <path id="icon/image/switch_camera_24px_2" fill-rule="evenodd" clip-rule="evenodd" d="M39.8456 10.3565H33.5426L29.9039 6.37988H17.974L14.3354 10.3565H8.03243C5.84527 10.3565 4.05579 12.146 4.05579 14.3332V38.193C4.05579 40.3802 5.84527 42.1696 8.03243 42.1696H39.8456C42.0327 42.1696 43.8222 40.3802 43.8222 38.193V14.3332C43.8222 12.146 42.0327 10.3565 39.8456 10.3565ZM19.7237 10.3565H28.1542L31.7929 14.3332H39.8456V38.193H8.03243V14.3332H16.0851L19.7237 10.3565ZM17.974 24.2748H29.9039V19.304L36.8631 26.2631L29.9039 33.2222V28.2514H17.974V33.2222L11.0149 26.2631L17.974 19.304V24.2748Z" fill="" />
    </g>
</svg>