<svg width="207" height="202" viewBox="0 0 207 202" fill="none" xmlns="http://www.w3.org/2000/svg">
    <path fill-rule="evenodd" clip-rule="evenodd" d="M130.911 159.773C154.581 165.473 179.507 162.539 201.21 151.497C222.913 140.455 239.972 122.027 249.317 99.5241C258.662 77.0208 259.68 51.9194 252.188 28.7321C244.696 5.54486 229.185 -14.2056 208.447 -26.9716C187.709 -39.7376 163.103 -44.6831 139.049 -40.9208C114.995 -37.1585 93.0685 -24.9346 77.2112 -6.44313L66.5191 6.02509L41.5826 -15.3591L52.2747 -27.8273C73.2211 -52.2533 102.189 -68.4047 133.973 -73.376C165.756 -78.3474 198.269 -71.812 225.668 -54.946C253.066 -38.0801 273.552 -11.9905 283.446 18.6318C293.341 49.254 291.997 82.4033 279.655 112.123C267.312 141.843 244.781 166.186 216.106 180.775C187.432 195.364 154.496 199.242 123.22 191.71C92.3951 184.287 65.1766 166.262 46.3049 140.812L40.1839 175.303L7.83945 169.563L23.8041 79.6038L56.1485 85.3439L56.1484 85.3445L112.563 95.3562L106.823 127.701L73.034 121.704C87.3071 140.729 107.768 154.2 130.911 159.773Z" fill="" />
    <path d="M201.21 151.497L203.999 156.978L201.21 151.497ZM130.911 159.773L132.35 153.795L130.911 159.773ZM249.317 99.5241L254.996 101.882L249.317 99.5241ZM252.188 28.732L246.336 30.6228L252.188 28.732ZM208.447 -26.9716L205.224 -21.735L208.447 -26.9716ZM139.049 -40.9208L139.999 -34.8453L139.049 -40.9208ZM77.2112 -6.44315L72.5432 -10.4462L77.2112 -6.44315ZM66.5191 6.02509L62.5161 10.6931L67.1841 14.6961L71.1871 10.0281L66.5191 6.02509ZM41.5826 -15.3591L36.9146 -19.3621L32.9116 -14.6941L37.5796 -10.6911L41.5826 -15.3591ZM52.2747 -27.8273L56.9427 -23.8243L52.2747 -27.8273ZM133.973 -73.376L134.923 -67.3005L133.973 -73.376ZM225.668 -54.946L222.444 -49.7093L225.668 -54.946ZM283.446 18.6318L277.595 20.5225L283.446 18.6318ZM279.655 112.123L273.976 109.764L279.655 112.123ZM216.106 180.775L213.318 175.294L216.106 180.775ZM123.22 191.71L124.659 185.732L123.22 191.71ZM46.3049 140.812L51.2444 137.149L42.7439 125.685L40.2502 139.737L46.3049 140.812ZM40.1839 175.303L39.1094 181.358L45.1641 182.432L46.2386 176.378L40.1839 175.303ZM7.83945 169.563L1.78473 168.488L0.710205 174.543L6.76495 175.618L7.83945 169.563ZM23.8041 79.6038L24.8786 73.5491L18.8239 72.4746L17.7494 78.5293L23.8041 79.6038ZM56.1485 85.3439L62.1987 86.4439L63.3034 80.3682L57.2231 79.2891L56.1485 85.3439ZM56.1484 85.3445L50.0983 84.2445L48.9936 90.3202L55.0739 91.3993L56.1484 85.3445ZM112.563 95.3562L118.618 96.4307L119.692 90.376L113.638 89.3015L112.563 95.3562ZM106.823 127.701L105.749 133.755L111.803 134.83L112.878 128.775L106.823 127.701ZM73.034 121.704L74.1085 115.65L58.7608 112.926L68.115 125.395L73.034 121.704ZM198.421 146.016C178.024 156.394 154.597 159.152 132.35 153.795L129.471 165.752C154.565 171.795 180.99 168.684 203.999 156.978L198.421 146.016ZM243.638 97.1656C234.854 118.318 218.82 135.638 198.421 146.016L203.999 156.978C227.007 145.271 245.09 125.736 254.996 101.882L243.638 97.1656ZM246.336 30.6228C253.379 52.4184 252.422 76.0132 243.638 97.1656L254.996 101.882C264.902 78.0284 265.981 51.4205 258.039 26.8413L246.336 30.6228ZM205.224 -21.735C224.715 -9.73639 239.294 8.82741 246.336 30.6228L258.039 26.8413C250.097 2.26231 233.656 -18.6748 211.671 -32.2083L205.224 -21.735ZM139.999 -34.8453C162.606 -38.3813 185.733 -33.7334 205.224 -21.735L211.671 -32.2083C189.686 -45.7417 163.599 -50.9848 138.099 -46.9963L139.999 -34.8453ZM81.8792 -2.44012C96.7838 -19.8207 117.392 -31.3094 139.999 -34.8453L138.099 -46.9963C112.598 -43.0077 89.3531 -30.0485 72.5432 -10.4462L81.8792 -2.44012ZM71.1871 10.0281L81.8792 -2.44012L72.5432 -10.4462L61.8511 2.02206L71.1871 10.0281ZM37.5796 -10.6911L62.5161 10.6931L70.5221 1.3571L45.5856 -20.0271L37.5796 -10.6911ZM47.6067 -31.8303L36.9146 -19.3621L46.2506 -11.3561L56.9427 -23.8243L47.6067 -31.8303ZM133.022 -79.4515C99.7915 -74.2538 69.5058 -57.3672 47.6067 -31.8303L56.9427 -23.8243C76.9364 -47.1393 104.586 -62.5556 134.923 -67.3005L133.022 -79.4515ZM228.891 -60.1826C200.246 -77.8162 166.253 -84.6491 133.022 -79.4515L134.923 -67.3005C165.26 -72.0456 196.293 -65.8078 222.444 -49.7093L228.891 -60.1826ZM289.298 16.7411C278.954 -15.2731 257.536 -42.5493 228.891 -60.1826L222.444 -49.7093C248.596 -33.6109 268.15 -8.70799 277.595 20.5225L289.298 16.7411ZM285.334 114.481C298.237 83.4109 299.642 48.755 289.298 16.7411L277.595 20.5225C287.04 49.7529 285.757 81.3957 273.976 109.764L285.334 114.481ZM218.895 186.256C248.874 171.003 272.43 145.552 285.334 114.481L273.976 109.764C262.194 138.133 240.687 161.369 213.318 175.294L218.895 186.256ZM121.78 197.688C154.48 205.563 188.915 201.509 218.895 186.256L213.318 175.294C185.948 189.22 154.512 192.921 124.659 185.732L121.78 197.688ZM41.3654 144.475C61.0953 171.082 89.5521 189.927 121.78 197.688L124.659 185.732C95.2381 178.646 69.2579 161.442 51.2444 137.149L41.3654 144.475ZM46.2386 176.378L52.3596 141.886L40.2502 139.737L34.1292 174.229L46.2386 176.378ZM6.76495 175.618L39.1094 181.358L41.2584 169.248L8.91394 163.508L6.76495 175.618ZM17.7494 78.5293L1.78473 168.488L13.8942 170.637L29.8588 80.6784L17.7494 78.5293ZM57.2231 79.2891L24.8786 73.5491L22.7296 85.6586L55.074 91.3986L57.2231 79.2891ZM62.1986 86.4446L62.1987 86.4439L50.0984 84.2438L50.0983 84.2445L62.1986 86.4446ZM55.0739 91.3993L111.489 101.411L113.638 89.3015L57.2229 79.2898L55.0739 91.3993ZM106.508 94.2817L100.768 126.626L112.878 128.775L118.618 96.4307L106.508 94.2817ZM107.898 121.646L74.1085 115.65L71.9595 127.759L105.749 133.755L107.898 121.646ZM132.35 153.795C110.6 148.557 91.3686 135.896 77.9529 118.014L68.115 125.395C83.2455 145.563 104.936 159.843 129.471 165.752L132.35 153.795Z" fill="" />
</svg>