<svg width="179" height="202" viewBox="0 0 179 202" fill="none" xmlns="http://www.w3.org/2000/svg">
    <path fill-rule="evenodd" clip-rule="evenodd" d="M75.0898 -39.3085C51.4196 -45.0088 26.4935 -42.0746 4.79049 -31.0323C-16.9127 -19.99 -33.9712 -1.56252 -43.3164 20.9405C-52.6616 43.4438 -53.6797 68.5452 -46.1875 91.7325C-38.6952 114.92 -23.1849 134.67 -2.44676 147.436C18.2911 160.202 42.8979 165.148 66.9516 161.385C91.0055 157.623 112.932 145.399 128.789 126.908L139.481 114.44L164.418 135.824L153.726 148.292C132.779 172.718 103.812 188.869 72.028 193.841C40.2441 198.812 7.73104 192.277 -19.6673 175.411C-47.0654 158.545 -67.5513 132.455 -77.446 101.833C-87.3406 71.2106 -85.9962 38.0613 -73.6541 8.34173C-61.3119 -21.3781 -38.7803 -45.7213 -10.1059 -60.3105C18.5687 -74.8998 51.5043 -78.7773 82.7809 -71.2453C114.057 -63.7134 141.621 -45.2665 160.52 -19.2231L170.167 -5.92955L143.58 13.364L133.933 0.0704459C119.625 -19.6465 98.7602 -33.6083 75.0898 -39.3085Z" fill="" />
    <path d="M4.79049 -31.0323L2.00195 -36.5131L4.79049 -31.0323ZM75.0898 -39.3085L76.5296 -45.287L75.0898 -39.3085ZM-43.3163 20.9405L-48.9954 18.5821L-43.3163 20.9405ZM-46.1875 91.7326L-40.336 89.8418L-46.1875 91.7326ZM-2.44675 147.436L-5.67036 152.673L-2.44675 147.436ZM66.9516 161.385L66.0014 155.31L66.9516 161.385ZM128.789 126.908L124.121 122.905L128.789 126.908ZM139.481 114.44L143.484 109.772L138.816 105.769L134.813 110.436L139.481 114.44ZM164.418 135.824L169.086 139.827L173.089 135.159L168.421 131.156L164.418 135.824ZM153.726 148.292L158.394 152.295L153.726 148.292ZM72.028 193.841L71.0777 187.765L72.028 193.841ZM-19.6673 175.411L-16.4437 170.174L-19.6673 175.411ZM-77.446 101.833L-71.5945 99.9421L-77.446 101.833ZM-73.6541 8.34173L-67.975 10.7002L-73.6541 8.34173ZM-10.1059 -60.3105L-7.31736 -54.8297L-10.1059 -60.3105ZM82.7809 -71.2453L84.2206 -77.2238L82.7809 -71.2453ZM160.52 -19.2231L155.543 -15.6114L155.543 -15.6114L160.52 -19.2231ZM170.167 -5.92955L173.779 -0.952583L178.756 -4.56424L175.144 -9.54121L170.167 -5.92955ZM143.58 13.364L138.603 16.9756L142.215 21.9526L147.192 18.3409L143.58 13.364ZM133.933 0.0704422L138.91 -3.54121L133.933 0.0704422ZM7.57902 -25.5516C27.977 -35.9299 51.4038 -38.6875 73.6501 -33.3301L76.5296 -45.287C51.4355 -51.3301 25.01 -48.2193 2.00195 -36.5131L7.57902 -25.5516ZM-37.6373 23.299C-28.8531 2.14687 -12.8193 -15.1732 7.57902 -25.5516L2.00195 -36.5131C-21.0062 -24.8068 -39.0892 -5.2719 -48.9954 18.5821L-37.6373 23.299ZM-40.336 89.8418C-47.3786 68.0462 -46.4215 44.4514 -37.6373 23.299L-48.9954 18.5821C-58.9017 42.4362 -59.9809 69.0441 -52.0389 93.6233L-40.336 89.8418ZM0.776855 142.2C-18.7145 130.201 -33.2935 111.637 -40.336 89.8418L-52.0389 93.6233C-44.097 118.202 -27.6552 139.139 -5.67036 152.673L0.776855 142.2ZM66.0014 155.31C43.3946 158.846 20.2679 154.198 0.776848 142.2L-5.67036 152.673C16.3143 166.206 42.4011 171.449 67.9019 167.461L66.0014 155.31ZM124.121 122.905C109.217 140.285 88.6083 151.774 66.0014 155.31L67.9019 167.461C93.4028 163.472 116.647 150.513 133.457 130.911L124.121 122.905ZM134.813 110.436L124.121 122.905L133.457 130.911L144.149 118.443L134.813 110.436ZM168.421 131.156L143.484 109.772L135.478 119.107L160.415 140.492L168.421 131.156ZM158.394 152.295L169.086 139.827L159.75 131.821L149.058 144.289L158.394 152.295ZM72.9783 199.916C106.209 194.718 136.495 177.832 158.394 152.295L149.058 144.289C129.064 167.604 101.415 183.02 71.0777 187.765L72.9783 199.916ZM-22.8909 180.647C5.75424 198.281 39.7473 205.114 72.9783 199.916L71.0777 187.765C40.7409 192.51 9.70783 186.272 -16.4437 170.174L-22.8909 180.647ZM-83.2974 103.723C-72.953 135.738 -51.5358 163.014 -22.8909 180.647L-16.4437 170.174C-42.5951 154.076 -62.1496 129.173 -71.5945 99.9421L-83.2974 103.723ZM-79.3332 5.98329C-92.2363 37.0537 -93.6418 71.7096 -83.2974 103.723L-71.5945 99.9421C-81.0395 70.7117 -79.7561 39.0689 -67.975 10.7002L-79.3332 5.98329ZM-12.8944 -65.7912C-42.8737 -50.538 -66.43 -25.0874 -79.3332 5.98329L-67.975 10.7002C-56.1939 -17.6687 -34.6868 -40.9045 -7.31736 -54.8297L-12.8944 -65.7912ZM84.2206 -77.2238C51.5201 -85.0987 17.0852 -81.0445 -12.8944 -65.7912L-7.31736 -54.8297C20.0522 -68.7551 51.4884 -72.456 81.3411 -65.2669L84.2206 -77.2238ZM165.497 -22.8347C145.739 -50.0625 116.921 -69.3489 84.2206 -77.2238L81.3411 -65.2669C111.194 -58.0778 137.504 -40.4706 155.543 -15.6114L165.497 -22.8347ZM175.144 -9.54121L165.497 -22.8347L155.543 -15.6114L165.19 -2.31789L175.144 -9.54121ZM147.192 18.3409L173.779 -0.952583L166.555 -10.9065L139.968 8.387L147.192 18.3409ZM128.956 3.6821L138.603 16.9756L148.557 9.75232L138.91 -3.54121L128.956 3.6821ZM73.6501 -33.3301C95.8967 -27.9727 115.508 -14.8505 128.956 3.6821L138.91 -3.54121C123.743 -24.4424 101.624 -39.2438 76.5296 -45.287L73.6501 -33.3301Z" fill="" />
</svg>